#!OML:ASF X:\für Bonn\!DataBase\2005_08_11_Bastian_Final\c3d\Bastian.ASF
:FULLY-SPECIFIED
:DEGREES
159
root -21.7365 17.6296 0.185762 81.5659 -80.2477 -86.1203
lowerback 5.86346 4.07028 7.73907
upperback 3.67075 5.68647 -3.15752
thorax 1.64855 3.02939 -7.85377
lowerneck -6.72075 -11.2707 -3.94785
upperneck -15.5199 -14.1785 16.8498
head -1.92169 -7.71679 5.54309
rclavicle -7.85199e-014 -1.59028e-015
rhumerus 54.3578 7.66533 1.44679
rradius 31.3883
rwrist -39.4965
rhand -3.49009 -10.6657
rfingers 7.12502
rthumb 22.2435 -39.4057
lclavicle -7.85199e-014 -1.59028e-015
lhumerus -27.6794 -2.55666 76.9612
lradius 10.603
lwrist 5.26918
lhand -10.7588 -5.70431
lfingers 7.12502
lthumb 15.2528 23.7134
rfemur 9.68493 2.40293 26.4493
rtibia 29.0452
rfoot -10.1131 -0.411231
rtoes -27.1622
lfemur -7.92992 4.20672 -11.6012
ltibia 28.545
lfoot -7.46536 -12.0464
ltoes -1.33708
160
root -21.7386 17.6298 0.184805 81.7346 -80.2337 -86.2665
lowerback 5.80834 4.0576 7.71067
upperback 3.68057 5.66437 -3.14947
thorax 1.68119 3.01928 -7.82368
lowerneck -6.65484 -11.2652 -3.87071
upperneck -15.5717 -14.1723 16.8378
head -1.9554 -7.7225 5.53572
rclavicle -9.54166e-015 3.65764e-014
rhumerus 54.4843 7.42195 0.881777
rradius 31.2501
rwrist -39.3164
rhand -3.61183 -10.834
rfingers 7.12502
rthumb 22.1267 -39.5879
lclavicle -9.54166e-015 3.65764e-014
lhumerus -27.6707 -2.65331 77.013
lradius 10.6905
lwrist 5.57696
lhand -10.8299 -5.70305
lfingers 7.12502
lthumb 15.1843 23.7198
rfemur 9.68141 2.40662 26.4645
rtibia 29.0193
rfoot -10.1124 -0.394579
rtoes -27.1581
lfemur -7.94844 4.25326 -11.5747
ltibia 28.5552
lfoot -7.46098 -12.0682
ltoes -1.26139
161
root -21.7404 17.6303 0.183637 81.8551 -80.2265 -86.3678
lowerback 5.76312 4.03836 7.67033
upperback 3.69316 5.63342 -3.14112
thorax 1.70822 3.00419 -7.78722
lowerneck -6.64108 -11.256 -3.82169
upperneck -15.5764 -14.162 16.8494
head -1.96275 -7.72178 5.53366
rclavicle 5.78463e-014 -4.77083e-015
rhumerus 54.632 7.1852 0.352291
rradius 31.1305
rwrist -39.119
rhand -3.78421 -11.0333
rfingers 7.12502
rthumb 21.9612 -39.8067
lclavicle 5.78463e-014 -4.77083e-015
lhumerus -27.6367 -2.62027 77.0248
lradius 10.7521
lwrist 5.71889
lhand -10.8613 -5.71217
lfingers 7.12502
lthumb 15.1541 23.713
rfemur 9.67497 2.42759 26.478
rtibia 28.9971
rfoot -10.1155 -0.384318
rtoes -27.1647
lfemur -7.95892 4.28386 -11.5567
ltibia 28.5588
lfoot -7.45849 -12.0803
ltoes -1.21235
162
root -21.7424 17.6303 0.182808 82.0699 -80.2255 -86.5417
lowerback 5.69847 4.01862 7.62518
upperback 3.69405 5.60106 -3.13251
thorax 1.73294 2.98794 -7.7467
lowerneck -6.6192 -11.2455 -3.75335
upperneck -15.5857 -14.1511 16.8511
head -1.97526 -7.7219 5.52674
rclavicle -3.18055e-015 -1.11319e-014
rhumerus 54.7919 6.98281 -0.113318
rradius 31.0382
rwrist -38.9505
rhand -4.01084 -11.2032
rfingers 7.12502
rthumb 21.7435 -40.002
lclavicle -3.18055e-015 -1.11319e-014
lhumerus -27.5977 -2.65145 77.0738
lradius 10.7872
lwrist 5.94983
lhand -10.9429 -5.75032
lfingers 7.12502
lthumb 15.0755 23.6807
rfemur 9.64706 2.4521 26.4787
rtibia 28.9771
rfoot -10.1271 -0.363489
rtoes -27.1512
lfemur -7.99548 4.31209 -11.5495
ltibia 28.5643
lfoot -7.46251 -12.0586
ltoes -1.21791
163
root -21.7442 17.6304 0.182224 82.2191 -80.2263 -86.6786
lowerback 5.66531 3.99503 7.57919
upperback 3.70638 5.56489 -3.11823
thorax 1.75081 2.96951 -7.70181
lowerneck -6.60558 -11.2303 -3.66661
upperneck -15.6052 -14.1349 16.8345
head -1.99319 -7.71995 5.51217
rclavicle -3.49861e-014 -3.02153e-014
rhumerus 54.9101 6.78369 -0.567409
rradius 31.0158
rwrist -38.6512
rhand -4.31132 -11.4027
rfingers 7.12502
rthumb 21.455 -40.2346
lclavicle -3.49861e-014 -3.02153e-014
lhumerus -27.5403 -2.67272 77.1351
lradius 10.8219
lwrist 6.18224
lhand -11.0036 -5.82873
lfingers 7.12502
lthumb 15.017 23.6067
rfemur 9.65039 2.455 26.476
rtibia 28.9573
rfoot -10.1427 -0.3406
rtoes -27.1781
lfemur -7.99633 4.34469 -11.5416
ltibia 28.5682
lfoot -7.46356 -12.0661
ltoes -1.16893
164
root -21.7457 17.6295 0.180977 82.382 -80.225 -86.8283
lowerback 5.64252 3.96316 7.53447
upperback 3.70535 5.519 -3.10766
thorax 1.7476 2.94502 -7.6631
lowerneck -6.60302 -11.2066 -3.53455
upperneck -15.5903 -14.1141 16.7721
head -2.00735 -7.71403 5.47557
rclavicle -5.9039e-014 2.38542e-014
rhumerus 55.0293 6.60127 -1.05304
rradius 31.0224
rwrist -38.2451
rhand -4.6315 -11.568
rfingers 7.12502
rthumb 21.1474 -40.4347
lclavicle -5.9039e-014 2.38542e-014
lhumerus -27.4863 -2.80055 77.2341
lradius 10.8249
lwrist 6.52368
lhand -11.103 -5.93418
lfingers 7.12502
lthumb 14.9213 23.5084
rfemur 9.64648 2.47996 26.4831
rtibia 28.942
rfoot -10.1545 -0.328207
rtoes -27.1844
lfemur -7.99732 4.38074 -11.5281
ltibia 28.5686
lfoot -7.4662 -12.0828
ltoes -1.11918
165
root -21.7473 17.6294 0.180455 82.6374 -80.231 -87.06
lowerback 5.60607 3.9399 7.50608
upperback 3.71385 5.48406 -3.10862
thorax 1.76724 2.92789 -7.64439
lowerneck -6.65031 -11.1876 -3.39358
upperneck -15.563 -14.1007 16.7349
head -2.00755 -7.71141 5.44082
rclavicle -2.80286e-014 7.95139e-015
rhumerus 55.1381 6.3624 -1.62436
rradius 31.0258
rwrist -37.6622
rhand -5.01387 -11.7139
rfingers 7.12502
rthumb 20.7801 -40.6212
lclavicle -2.80286e-014 7.95139e-015
lhumerus -27.3866 -2.9347 77.329
lradius 10.8117
lwrist 6.86218
lhand -11.1846 -6.04445
lfingers 7.12502
lthumb 14.8427 23.4039
rfemur 9.63491 2.50618 26.4744
rtibia 28.9244
rfoot -10.1584 -0.297076
rtoes -27.1399
lfemur -8.01231 4.41757 -11.5264
ltibia 28.5722
lfoot -7.47214 -12.0615
ltoes -1.12409
166
root -21.7489 17.6302 0.179612 82.8868 -80.2499 -87.2802
lowerback 5.57375 3.90625 7.44065
upperback 3.7115 5.4344 -3.09816
thorax 1.76519 2.90103 -7.59333
lowerneck -6.65426 -11.1477 -3.24316
upperneck -15.5772 -14.0573 16.6698
head -2.03307 -7.69676 5.40306
rclavicle 9.93923e-015 1.43125e-014
rhumerus 55.2893 6.02858 -2.50911
rradius 30.9878
rwrist -36.7122
rhand -5.35636 -11.7853
rfingers 7.12502
rthumb 20.451 -40.7283
lclavicle 9.93923e-015 1.43125e-014
lhumerus -27.3071 -3.10395 77.4619
lradius 10.7792
lwrist 7.23334
lhand -11.2857 -6.20651
lfingers 7.12502
lthumb 14.7453 23.249
rfemur 9.61527 2.52724 26.4533
rtibia 28.9069
rfoot -10.1717 -0.268027
rtoes -27.2175
lfemur -8.03365 4.43608 -11.5418
ltibia 28.5763
lfoot -7.46631 -12.031
ltoes -0.956544
167
root -21.7503 17.6298 0.179015 83.2072 -80.2286 -87.5747
lowerback 5.55172 3.87401 7.42262
upperback 3.71093 5.3894 -3.07375
thorax 1.7638 2.87752 -7.55509
lowerneck -6.73754 -11.1232 -3.07724
upperneck -15.5063 -14.0441 16.5738
head -2.02182 -7.68965 5.34321
rclavicle 8.09054e-014 -1.43125e-014
rhumerus 55.4332 5.70729 -3.30874
rradius 31.0066
rwrist -35.7912
rhand -5.83938 -11.8382
rfingers 7.12502
rthumb 19.9868 -40.8303
lclavicle 8.09054e-014 -1.43125e-014
lhumerus -27.1943 -3.19002 77.5696
lradius 10.7136
lwrist 7.49387
lhand -11.3579 -6.4019
lfingers 7.12502
lthumb 14.6757 23.0587
rfemur 9.59715 2.5405 26.4681
rtibia 28.8867
rfoot -10.181 -0.218162
rtoes -27.1912
lfemur -8.04919 4.47111 -11.5078
ltibia 28.5827
lfoot -7.48314 -12.0207
ltoes -1.04668
168
root -21.7515 17.6297 0.178612 83.5596 -80.2295 -87.903
lowerback 5.53126 3.84164 7.38548
upperback 3.71349 5.34327 -3.05197
thorax 1.763 2.8531 -7.5088
lowerneck -6.80401 -11.0939 -2.91934
upperneck -15.4709 -14.0217 16.4834
head -2.02346 -7.68019 5.28959
rclavicle -1.25234e-014 -1.43125e-014
rhumerus 55.5968 5.36791 -4.08562
rradius 31.0607
rwrist -34.878
rhand -6.42711 -11.929
rfingers 7.12502
rthumb 19.4217 -40.9791
lclavicle -1.25234e-014 -1.43125e-014
lhumerus -27.2235 -3.68155 77.8481
lradius 10.9133
lwrist 8.15234
lhand -11.398 -6.50162
lfingers 7.12502
lthumb 14.6371 22.9618
rfemur 9.58006 2.578 26.4641
rtibia 28.8715
rfoot -10.1945 -0.169477
rtoes -27.1407
lfemur -8.06264 4.50001 -11.5017
ltibia 28.5856
lfoot -7.48808 -11.9908
ltoes -1.00588
169
root -21.7527 17.6299 0.178129 83.9052 -80.2502 -88.2264
lowerback 5.53038 3.80245 7.33728
upperback 3.70688 5.28901 -3.04904
thorax 1.74106 2.82346 -7.47825
lowerneck -6.88258 -11.0524 -2.73026
upperneck -15.4148 -13.9858 16.402
head -2.01974 -7.66487 5.23285
rclavicle 1.70955e-014 3.02153e-014
rhumerus 55.7558 4.96491 -5.04763
rradius 31.1229
rwrist -33.7953
rhand -7.07102 -11.9379
rfingers 7.12502
rthumb 18.8025 -41.0491
lclavicle 1.70955e-014 3.02153e-014
lhumerus -27.249 -4.09239 78.0748
lradius 11.1074
lwrist 8.68008
lhand -11.4438 -6.56622
lfingers 7.12502
lthumb 14.593 22.9004
rfemur 9.56499 2.60459 26.4374
rtibia 28.8549
rfoot -10.2077 -0.129715
rtoes -27.229
lfemur -8.07329 4.52657 -11.5184
ltibia 28.5887
lfoot -7.50598 -11.9608
ltoes -1.0192
